Patient4_TMGait_0pt4_03_left_32_EMG.mot
version=1
nRows=37
nColumns=33
inDegrees=no
endheader
time	1LAddLong	2LGlutMax	3LGlutMed	4LIliopsoas	5LSemiMemb	6LBicFemLong	7LRecFem	8LVastMed	9LVastLat	10LGasMed	11LTibAnt	12lTibPost	13LPeroneusLong	14LSol	15LExtDigLong	16LFlexDigLong	17RAddLong	18RGlutMax	19RGlutMed	20RIliopsoas	21RSemiMemb	22RBicFemLong	23RRecFem	24RVastMed	25RVastLat	26RGasMed	27RTibAnt	28RTibPost	29RPeroneusLong	30RSol	31RExtDigLong	32RFlexDigLong
43.155	0.00885	0.04776	-0.15701	-0.006866	0.007172	-0.040436	0.042419	0.003967	-0.009155	-0.30395	-0.016785	-0.00885	-0.016632	-0.46081	-0.045624	-0.1178	-0.066681	-0.58304	0.12909	-0.16251	0.18204	0.054169	-0.070038	0.027161	-0.24597	-0.003052	0.053101	0.005493	-0.081787	-0.032043	-0.004883	-0.016785
43.156	0.002594	0.077057	-0.13962	0.008392	0.002899	0.034027	0.05722	0.004883	-0.03006	-0.39932	-0.015411	0.011597	0.098877	-0.13458	-0.07309	-0.053711	-0.12253	-0.52353	-0.032196	-0.098724	0.44571	0.012512	-0.059204	-0.013428	-0.18677	-0.001831	0.016022	0.003052	0.006256	-0.056763	-0.001068	-0.011597
43.157	-0.001221	0.09613	-0.12054	0.005035	0.010681	0.036774	0.064087	0.005188	-0.014954	-0.073242	0.007019	-0.20752	0.092468	0.21454	-0.036316	-0.048065	-0.099182	-0.51544	0.007324	-0.0354	0.44891	-0.055542	-0.21149	-0.018616	0.000916	0.000458	-0.024872	0.005798	-0.3302	-0.055389	-0.001984	-0.011444
43.158	0.006256	0.096588	-0.11948	0.005798	-0.005341	0.005188	0.065918	0.005188	-0.008087	0.087585	0.011292	0.11169	-0.007172	0.20065	-0.034485	-0.065155	-0.066376	-0.54871	-0.1535	0.070038	0.30777	-0.12512	-0.4483	0.06897	0.12848	-0.007782	-0.031128	0.003967	0.042267	-0.028229	-0.002441	-0.010376
43.159	0.001984	0.098419	-0.12405	0.008392	0.000153	-0.030975	0.078888	0.003204	-0.005188	0.47516	0.001221	0.16159	0.081482	-0.036011	-0.032349	-0.055695	-0.053101	-0.57434	-0.071869	0.065002	0.16785	-0.14191	-0.43152	0.22079	0.12543	-0.00885	-0.01709	0.011292	0.054474	-0.046234	-0.001526	-0.010986
43.16	0.005341	0.121	-0.12238	0.016785	0.022736	-0.066071	0.076447	0.005341	-0.01709	0.7753	0.021362	0.025177	-0.056763	-0.057678	-0.038757	-0.35156	-0.049133	-0.68787	-0.1268	0.045166	-0.075226	-0.13123	-0.18814	0.26306	0.13565	-0.006866	-0.001984	0.003357	-0.035858	-0.048218	-0.005188	-0.007172
43.161	0.003204	0.10941	-0.14069	0.018921	0.043945	-0.087891	0.066986	-0.001221	-0.009613	0.46387	0.031586	0.020905	0.010071	0.044861	-0.041504	0.17838	-0.058136	-0.65308	0.061951	0.013428	-0.065002	-0.12009	0.070648	0.27374	0.024872	-0.014648	0.011902	0.001221	-0.079193	-0.052948	-0.002289	0.000153
43.162	0.010681	0.11154	-0.12726	0.000916	0.055084	-0.035706	0.066681	-0.000153	-0.030212	-0.22507	0.019684	-0.023651	0.08255	0.16434	0.007782	-0.17868	-0.03067	-0.47333	0.24628	0.001526	0.016937	-0.12604	0.07019	0.19806	-0.029297	-0.00473	0.0177	0.004272	-0.1091	-0.047607	0.005951	-0.00351
43.163	0.00824	0.12039	-0.099945	0.004425	0.028687	0.031128	0.079498	0.007172	-0.027924	-0.43655	-0.00824	-0.039978	0.14465	0.088959	0.016327	0.21332	-0.027466	-0.32944	0.55191	-0.05249	0.046234	-0.11688	-0.12116	0.20721	-0.053864	-0.006104	0.009155	0	-0.12436	-0.063477	-0.000305	-0.002747
43.164	0.006104	0.11292	-0.088959	-0.011444	0.003967	0.04303	0.084381	0.006714	-0.028534	-0.37857	-0.006256	-0.096283	0.041809	0.048981	-0.007782	0.28366	0.001984	-0.25238	0.26276	-0.050507	0.049744	-0.12528	-0.58075	0.078583	0.02594	-0.001831	-0.010071	0.00061	-0.16846	-0.062866	0.006104	-0.000458
43.165	0.007019	0.13687	-0.059052	-0.000458	0.006866	0.012665	0.09613	0.005341	-0.025482	-0.38467	0.010529	0.080109	-0.20676	-0.35767	-0.030518	-0.045471	0.034485	-0.19669	0.17044	0.029449	0.063477	-0.1535	-0.81268	-0.056	0.16571	-0.002441	-0.006714	0.008392	-0.18021	-0.04364	0.001068	-0.002136
43.166	0.003662	0.1474	-0.043182	-0.007324	-0.009308	-0.002594	0.080109	-0.000763	-0.016022	-0.36835	0.00946	0.14343	-0.32562	-0.48325	-0.000305	0.14984	0.068054	-0.16983	-0.2533	0.032654	-0.042725	-0.20477	-0.75272	-0.21042	0.28336	-0.003815	-0.009155	0	-0.09552	-0.061646	-0.007782	-0.000305
43.167	0.005188	0.14023	-0.009918	0	0.023346	-0.016022	0.10132	0.007935	-0.021362	-0.17349	0.020599	-0.059662	-0.17395	-0.17242	0.029755	-0.50308	0.13855	-0.09903	-0.13092	0.04715	-0.17151	-0.2298	-0.47287	-0.45425	0.28076	-0.001831	-0.002899	-0.002136	-0.026093	-0.056	0.001984	-0.00412
43.168	-0.006256	0.13947	0.050049	0.010986	0.029449	-0.033875	0.11414	0.007629	-0.011444	-0.076599	0.004578	-0.06424	0.01297	0.37155	0.048981	0.070343	0.17548	-0.065002	0.017548	0.062408	-0.3215	-0.14084	-0.24719	-0.4364	0.19257	-0.007019	-0.007324	-0.003052	-0.057068	-0.063324	-0.002441	-0.003662
43.169	0.005341	0.13473	0.068817	0.014343	0.018768	-0.068359	0.1091	0.004272	-0.022888	0.34759	0.008087	-0.029449	-0.004272	0.23972	0.003357	0.30823	0.13123	-0.010681	-0.025787	0.045471	0.14404	-0.088348	-0.074615	-0.42618	0.086365	-0.007477	-0.001373	0.000458	-0.055084	-0.063171	0.002441	-0.010376
43.17	-0.009918	0.13947	0.048065	0.025177	-0.001831	-0.092621	0.12207	-0.000916	-0.011902	0.32028	0.002136	-0.038605	0.010223	0.10071	-0.011444	-0.008392	0.084229	0.13977	0.20874	0.016327	0.29892	-0.11749	-0.10727	-0.30975	0.050507	-0.000458	-0.003052	0.000916	-0.094452	-0.089722	-0.001831	-0.013123
43.171	0.000153	0.13397	0.07843	0.016632	-0.025482	-0.11383	0.13962	0.004272	-0.020599	-0.31982	0.005951	-0.008698	0.027618	0.061035	-0.006561	0.061951	0.002136	0.080566	0.098114	0.029144	0.25223	-0.048523	-0.18478	-0.072937	0.064697	-0.001984	-0.002136	-0.001221	-0.042572	-0.058899	0.003052	-0.011597
43.172	0.003815	0.13825	0.1181	0.00473	-0.003357	-0.11169	0.15625	0.00473	-0.005646	-0.2298	0.000458	-0.02243	-0.1564	-0.032806	-0.000153	0.03006	-0.097046	0.052795	-0.1741	0.062866	0.30136	0.04776	-0.21454	0.011597	0.04837	-0.004425	0.004272	-0.000153	0.041809	-0.08728	-0.003204	-0.015106
43.173	0.001526	0.11597	0.11826	0.014191	0.019531	-0.060577	0.19073	0.008545	-0.006104	0.19684	0.000305	-0.036316	-0.17364	0.043335	0.014496	-0.015564	-0.11444	-0.005341	-0.22797	0.031281	0.29205	0.050812	-0.40466	0.055847	0.090332	0.000153	0.025024	0.001373	0.21316	-0.082703	0.000916	-0.015106
43.174	-0.001526	0.10254	0.13534	0.001984	0.015564	-0.05661	0.21011	0.005798	-0.01709	0.002594	0.006714	0.088501	-0.082245	0.48325	0.016022	-0.009308	-0.037994	-0.05661	-0.45212	-0.045013	0.16327	0.048218	-0.36713	0.51422	0.10407	0.003815	0.013733	0.000458	0.25681	-0.10025	0.00061	-0.018005
43.175	0.001526	0.11032	0.15045	0.002441	0.002441	-0.035706	0.20599	0.005646	0.002441	-0.21454	0.005035	-0.1445	0.060577	0.15366	-0.001373	-0.030975	0.029449	-0.016632	-0.56366	-0.12436	0.23025	0.000916	-0.26474	0.77743	0.071106	0.003204	-0.018158	0.001831	-0.46845	-0.1033	-0.00061	-0.013733
43.176	0.003357	0.1268	0.16113	-0.001984	0.009155	-0.000305	0.21683	0.005341	-0.003967	-0.30182	-0.000458	0.003662	0.013275	0.10117	0.014648	-0.041046	0.049438	-0.076141	-0.29556	-0.068512	0.28732	-0.041351	-0.093842	0.52521	0.046082	0.008087	-0.035706	0.001373	-0.49759	-0.074615	0.001984	-0.014343
43.177	0.009613	0.13596	0.15778	0.014954	0.003357	0.10529	0.18951	0.001678	-0.005646	-0.27176	0.001831	-0.048828	0.024567	-0.030518	-0.010223	-0.027924	0.029449	-0.07431	0.17914	-0.030365	0.12421	-0.007172	-0.076599	0.46097	0.057678	-0.001831	-0.022888	-0.002136	-0.11307	-0.051117	0.000763	-0.012665
43.178	0.009155	0.14908	0.15808	0.010376	0.035706	0.071564	0.16647	-0.005646	0.00412	-0.11597	0.004883	-0.004425	0.056915	0.015106	-0.007629	-0.00412	0.015411	-0.045471	0.13809	-0.018311	0.112	0.12711	-0.11704	0.14832	0.066376	-0.000305	0.019989	-0.001221	-0.045624	-0.046234	0.002594	-0.0177
43.179	0.006256	0.11276	0.17883	-0.002136	0.020905	0.007019	0.17746	0.001678	-0.009155	-0.007324	0.013428	-0.029755	0.12253	0.059662	-0.011139	-0.012512	0.027466	-0.15182	0.22064	0.098877	0.21942	0.10498	-0.054016	-0.215	0.019684	-0.002441	0.011749	0.000153	0.17685	-0.045319	-0.001526	-0.014801
43.18	0.001373	0.11795	0.18738	-0.002289	0.004425	-0.040741	0.15533	0.000153	-0.016174	0.047302	0.003815	-0.026398	0.10925	-0.14786	0.003967	-0.026245	0.033264	-0.21942	-0.19211	0.19455	0.28564	0.021057	-0.010529	-0.3717	-0.007477	-0.002899	0.01297	-0.003052	0.30197	-0.049286	-0.00061	-0.005341
43.181	0.005035	0.11246	0.17502	0.00061	0.038147	-0.008392	0.14999	0.024414	0.013885	0.10986	0.008698	-0.018768	0.050201	-0.21515	0.013428	-0.006256	0.072937	-0.2771	-0.32394	0.13214	0.29923	-0.036774	0.16861	-0.54581	-0.058289	-0.001221	0.00412	0.007629	0.018158	-0.083618	0.001984	-0.003662
43.182	0.003204	0.12848	0.14542	0.007324	0.019531	0.052948	0.14877	-0.037689	-0.001831	0.29633	0.003357	-0.005493	0.049438	-0.059204	0.017242	-0.021057	0.10956	-0.26627	-0.44846	0.048828	0.18768	-0.065765	0.24185	-0.79895	0.22522	-0.001373	-0.007019	-0.000458	-0.12466	-0.053558	0.001526	-0.002747
43.183	0.005646	0.1033	0.16098	-0.006104	-0.014954	0.059967	0.13702	0.013428	-0.008087	0.41092	-0.000916	-0.008392	0.052032	0.10086	0.018158	-0.017548	0.081482	-0.20233	-0.51453	0.041504	0.14099	-0.094147	0.17288	-0.65262	0.56824	0.000305	-0.035553	-0.002899	-0.062561	-0.044861	0.000763	0.001068
43.184	-0.002899	0.11276	0.18448	0.007935	-0.012665	0.049133	0.13229	0.010529	-0.016632	0.21698	0.002441	0.000763	0.054474	-0.043335	0.007172	-0.017548	0.079193	-0.15167	-0.63934	-0.16266	0.11032	-0.10361	0.12955	-0.47653	0.3746	-0.003662	-0.025024	-0.000916	-0.31174	-0.054474	-0.000458	0.000305
43.185	0.006561	0.12344	0.22232	-0.008698	0.019684	0.010376	0.12085	0.008545	-0.011902	0.18158	0.000916	-0.03006	0.03952	-0.085754	0.005035	-0.016632	0.027466	-0.13351	-0.030518	-0.32105	-0.11124	-0.003815	0.027008	-0.29037	-0.061493	-0.001526	-0.053711	-0.002136	-0.34805	-0.060883	-0.000763	-0.010071
43.186	0.005035	0.079193	0.20737	0.006714	0.034485	-0.028992	0.10483	0.014038	-0.023804	0.17029	0.002899	-0.001678	0.070343	0.003815	0.000458	-0.018005	0	-0.10269	-0.47607	-0.16953	0.11353	0.005493	-0.32455	-0.22766	-0.27466	-0.002136	-0.02182	0.001678	-0.28549	-0.019226	-0.000458	-0.014343
43.187	0.001984	0.11017	0.36972	0.015717	0.029144	-0.089569	0.10162	0.009613	-0.031891	0.12207	-0.000916	0.011749	0.045471	0.12589	-0.001373	-0.013428	0.00473	-0.11154	-0.84213	0.12299	0.37094	-0.074921	-0.40924	-0.15915	-0.28625	-0.001831	0.014038	-0.000458	-0.25971	-0.050049	0.000458	-0.016785
43.188	0.004425	0.10864	0.34317	0.007629	0.011749	-0.080566	0.10422	0.009308	-0.019531	-0.28198	0.00473	0.005188	0.018005	0.042419	-0.010529	-0.021973	0.040131	-0.035095	-0.77484	0.13657	0.26627	-0.15686	-0.24338	-0.081024	-0.2182	0.005035	0.001831	-0.000153	-0.17059	-0.006256	-0.001526	-0.015259
43.189	-0.006866	0.14465	0.34546	0.005951	0.005493	-0.032196	0.10361	0.001221	-0.03006	-0.57358	0.009613	-0.027313	-0.037384	0.02182	-0.018158	-0.016937	0.081329	0.002747	-0.8606	0.048523	0.084991	-0.18249	-0.046844	-0.057983	-0.26886	0.010681	-0.049133	-0.000153	-0.079498	-0.048981	-0.00061	-0.014954
43.19	0.002747	0.112	0.37262	0.002747	-0.005646	0.004425	0.093231	0.02655	-0.023041	-0.35751	0.006104	-0.01236	-0.047607	0.042725	-0.013428	-0.029144	0.072632	-0.003815	0.066223	0.10742	0.072021	-0.11765	0.13397	-0.05661	-0.41916	0.004272	-0.057373	-0.003967	-0.16403	-0.048065	-0.001678	-0.006409
43.191	0.007324	0.089417	0.40176	0.015411	0.001373	0.009918	0.077667	0.016479	-0.007172	-0.1178	0.009918	-0.017853	-0.013275	0.045471	0.006866	-0.86807	0.015106	-0.082703	0.97397	0.03067	0.34653	-0.045166	0.000305	0.17609	-0.24033	0	-0.063629	0.002899	-0.096436	-0.072479	0.001831	-0.00946
